<svg xmlns="http://www.w3.org/2000/svg" width="15.283" height="16" viewBox="0 0 15.283 16">
  <g id="Group_791" data-name="Group 791">
    <path id="Path_409" data-name="Path 409" d="M11.2,4.512l4.2,7.85V16h2.3V12.362L26.483,0l-9.9,8.49Z" transform="translate(-11.2)" fill="#fff"/>
  </g>
  <g id="Group_792" data-name="Group 792" transform="translate(3.894 3.517)">
    <circle id="Ellipse_2" data-name="Ellipse 2" cx="1.491" cy="1.491" r="1.491" transform="translate(0)" fill="#fff"/>
  </g>
  <path id="Path_461" data-name="Path 461" d="M5.8,2.614H3.864A.114.114,0,0,1,3.75,2.5V.568a.568.568,0,1,0-1.136,0V2.5a.114.114,0,0,1-.114.114H.568a.568.568,0,1,0,0,1.136H2.5a.114.114,0,0,1,.114.114V5.8a.568.568,0,1,0,1.136,0V3.864a.114.114,0,0,1,.114-.114H5.8a.568.568,0,1,0,0-1.136Z" transform="translate(8.8 9.636)" fill="#fff"/>
</svg>