<svg xmlns="http://www.w3.org/2000/svg" width="16.001" height="15.998" viewBox="0 0 16.001 15.998">
  <path id="Path_457" data-name="Path 457" d="M167.28,250a1.462,1.462,0,0,1-1.48,1.47h-.24v4.8a1.722,1.722,0,0,1-1.72,1.73h-2.56a.467.467,0,0,1-.46-.47v-3.76a.785.785,0,0,0-.79-.79h-1.5a.785.785,0,0,0-.79.79v3.76a.469.469,0,0,1-.47.47h-2.55a1.731,1.731,0,0,1-1.73-1.73v-4.8h-.3a1.449,1.449,0,0,1-.98-.43,1.47,1.47,0,0,1,0-2.08h.01l6.52-6.53a1.479,1.479,0,0,1,2.08,0l6.53,6.53A1.5,1.5,0,0,1,167.28,250Z" transform="translate(-151.279 -242.003)" fill="#cc001b"/>
</svg>