<svg xmlns="http://www.w3.org/2000/svg" width="50" height="50" viewBox="0 0 50 50">
  <circle id="Ellipse_48" data-name="Ellipse 48" cx="25" cy="25" r="25" fill="#ebebeb"/>
  <path id="Path_455" data-name="Path 455" d="M180.13,233.01l-3.18-3.19a6.819,6.819,0,1,0-6.79,1.19v6.3a.472.472,0,0,0,.48.47.485.485,0,0,0,.26-.07l1.64-1.1,1.64,1.1a.5.5,0,0,0,.67-.14.485.485,0,0,0,.07-.26v-2.78l1.85,1.85a.486.486,0,0,0,.68-.02.464.464,0,0,0,.12-.23l.39-1.93,1.93-.39a.481.481,0,0,0,.37-.57A.488.488,0,0,0,180.13,233.01Zm-7.59-2.52a5.875,5.875,0,1,1,5.87-5.87A5.887,5.887,0,0,1,172.54,230.49Zm-.18-10.82a4.931,4.931,0,0,0,0,9.86h.18a4.931,4.931,0,1,0-.18-9.86Zm1.04,6.08-.63-.33a.487.487,0,0,0-.44,0l-.63.33.11-.7a.462.462,0,0,0-.13-.42l-.5-.5.7-.11a.479.479,0,0,0,.35-.25l.32-.64.31.64a.5.5,0,0,0,.36.25l.7.11-.5.5a.5.5,0,0,0-.14.42Z" transform="translate(-147.715 -202.79)" fill="#2f2f2f"/>
</svg>