<svg xmlns="http://www.w3.org/2000/svg" width="16" height="11.756" viewBox="0 0 16 11.756">
  <path id="Path_459" data-name="Path 459" d="M13.629,54.532H2.391A2.4,2.4,0,0,0,0,56.923V63.9a2.4,2.4,0,0,0,2.391,2.391H13.609A2.4,2.4,0,0,0,16,63.9V56.923A2.368,2.368,0,0,0,13.629,54.532ZM11.2,60.609a.465.465,0,0,1-.139.139L6.416,63.5a.386.386,0,0,1-.538-.139.337.337,0,0,1-.06-.2v-5.5a.4.4,0,0,1,.4-.4.384.384,0,0,1,.2.06l4.643,2.75A.4.4,0,0,1,11.2,60.609Z" transform="translate(0 -54.532)" fill="#7c7c7b"/>
</svg>