<svg xmlns="http://www.w3.org/2000/svg" width="50" height="50" viewBox="0 0 50 50">
  <circle id="Ellipse_47" data-name="Ellipse 47" cx="25" cy="25" r="25" fill="#ebebeb"/>
  <path id="Path_456" data-name="Path 456" d="M198.52,238.26c-.23-.55-.56-1.18-.9-1.85a22.933,22.933,0,0,1-1.83-4.19,4.209,4.209,0,0,1,.23-3.6.592.592,0,0,0-.15-.82.6.6,0,0,0-.47-.08,6.93,6.93,0,0,0-4,2.8,4.7,4.7,0,0,0-.67,2.34,3.039,3.039,0,0,0-1.2-.61.579.579,0,0,0-.68.46.608.608,0,0,0-.01.19c.21,1.57-.5,2.61-1.31,3.81a13.116,13.116,0,0,0-1.11,1.83,5.807,5.807,0,0,0,.42,5.7,6.824,6.824,0,0,0,7.7,3.24c.04-.01.09-.03.13-.04a6.088,6.088,0,0,0,3.79-3.33A7.264,7.264,0,0,0,198.52,238.26Zm-4.03,7.28a2.148,2.148,0,0,1-1.81,1c-.19-.01-.38-.02-.57-.04a2.481,2.481,0,0,1-1.42-.8,2.616,2.616,0,0,1-.63-2.04,6.064,6.064,0,0,1,1.39-2.47,7.784,7.784,0,0,0,1.6-2.81c.62.8,1.19,2.23.41,4.5a.6.6,0,0,0,.37.75.565.565,0,0,0,.26.02,1.834,1.834,0,0,0,.8-.31A3.365,3.365,0,0,1,194.49,245.54Z" transform="translate(-167.864 -212.703)" fill="#2f2f2f"/>
</svg>